<svg width="70" height="70" viewBox="0 0 70 70" fill="none" xmlns="http://www.w3.org/2000/svg">
<g clip-path="url(#clip0_385_3251)">
<rect width="70" height="70" rx="35" fill="white"/>
<path d="M17.5778 52H10.1378C9.52981 52 9.08181 51.872 8.79381 51.616C8.53781 51.328 8.40981 50.88 8.40981 50.272V19.168C8.40981 18.56 8.53781 18.128 8.79381 17.872C9.08181 17.584 9.52981 17.44 10.1378 17.44H31.5458C32.1538 17.44 32.5858 17.584 32.8418 17.872C33.1298 18.128 33.2738 18.56 33.2738 19.168V24.88C33.2738 25.488 33.1298 25.936 32.8418 26.224C32.5858 26.48 32.1538 26.608 31.5458 26.608H19.3058V31.6H27.6578C28.2658 31.6 28.6978 31.744 28.9538 32.032C29.2418 32.288 29.3858 32.72 29.3858 33.328V39.088C29.3858 39.696 29.2418 40.144 28.9538 40.432C28.6978 40.688 28.2658 40.816 27.6578 40.816H19.3058V50.272C19.3058 50.88 19.1618 51.328 18.8738 51.616C18.6178 51.872 18.1858 52 17.5778 52ZM48.3057 52H32.1297C31.5217 52 31.0737 51.872 30.7857 51.616C30.5297 51.328 30.4017 50.88 30.4017 50.272V19.168C30.4017 18.56 30.5297 18.128 30.7857 17.872C31.0737 17.584 31.5217 17.44 32.1297 17.44H48.3057C52.3057 17.44 55.2657 18.24 57.1857 19.84C59.1377 21.44 60.1137 23.904 60.1137 27.232V42.208C60.1137 45.536 59.1377 48 57.1857 49.6C55.2657 51.2 52.3057 52 48.3057 52ZM41.2977 26.608V42.928H47.0097C47.7777 42.928 48.3377 42.736 48.6897 42.352C49.0737 41.968 49.2657 41.376 49.2657 40.576V28.912C49.2657 28.112 49.0737 27.536 48.6897 27.184C48.3377 26.8 47.7777 26.608 47.0097 26.608H41.2977Z" fill="black"/>
<ellipse cx="7" cy="13.5" rx="13" ry="13.5" fill="white"/>
<circle cx="59" cy="52" r="8" fill="white"/>
<circle cx="59" cy="52" r="4" fill="black"/>
</g>
<defs>
<clipPath id="clip0_385_3251">
<rect width="70" height="70" rx="35" fill="white"/>
</clipPath>
</defs>
</svg>
